<?xml version="1.0" encoding="UTF-8"?>
<svg width="32px" height="32px" viewBox="0 0 32 32" version="1.1" xmlns="http://www.w3.org/2000/svg" xmlns:xlink="http://www.w3.org/1999/xlink">
    <!-- Generator: Sketch 50.2 (55047) - http://www.bohemiancoding.com/sketch -->
    <title>幸福千万家后台logo</title>
    <desc>Created with Sketch.</desc>
    <defs>
        <linearGradient x1="101.014839%" y1="292.040072%" x2="27.1135109%" y2="-103.063784%" id="linearGradient-1">
            <stop stop-color="#1DE9B6" offset="0%"></stop>
            <stop stop-color="#03BFEE" offset="100%"></stop>
        </linearGradient>
    </defs>
    <g id="确定稿" stroke="none" stroke-width="1" fill="none" fill-rule="evenodd">
        <g id="0-说明" transform="translate(-530.000000, -354.000000)">
            <g id="幸福千万家后台logo" transform="translate(530.000000, 354.000000)">
                <g id="logo2">
                    <circle id="Oval-2" fill="url(#linearGradient-1)" cx="16" cy="16" r="16"></circle>
                    <path d="M7,17.9224427 C11.3974729,20.2767527 14.6441559,22.9692718 16.740049,26 C14.5597554,23.8546833 11.6413935,21.8691658 9.92657186,20.9588722 C8.78335742,20.3520099 7.80783347,19.3398667 7,17.9224427 Z M19.2051915,6 C19.8090439,6.58275403 21.2298519,7.84599861 21.0501835,8.82861719 C20.9154159,9.91421843 19.6090289,10.9922595 16.2433999,13.6101323 C13.6187277,15.7282081 10.6927178,19.2402448 13.2436518,21.2202646 C11.3229849,19.3907591 9.68931152,17.7617355 9.85351176,16.0793234 C9.8157933,12.9996456 18.3649146,7.41754612 19.2051915,6 Z M23.1394237,10.0395425 C23.743276,10.6222965 25.1640841,11.8855411 24.9844157,12.8681597 C24.8496481,13.9537609 23.5432611,15.031802 20.177632,17.6496748 C17.5529599,19.7677506 14.6269499,23.2797873 17.177884,25.2598071 C15.2572171,23.4303015 13.6235437,21.801278 13.7877439,20.1188659 C13.7500254,17.039188 22.2991468,11.4570886 23.1394237,10.0395425 Z" id="Combined-Shape" fill="#FFFFFF"></path>
                </g>
            </g>
        </g>
    </g>
</svg>